<?xml version="1.0" encoding="UTF-8"?>
<svg xmlns="http://www.w3.org/2000/svg" xmlns:xlink="http://www.w3.org/1999/xlink" version="1.1" width="40" height="40" viewBox="0 0 64 24" preserveAspectRatio="xMidYMid meet">
<g id="surface3">
<path style=" stroke:none;fill-rule:nonzero;fill:rgb(93.72549%,93.72549%,93.72549%);fill-opacity:1;" d="M 4.457031 19.597656 L 33.082031 19.597656 C 33.988281 19.597656 34.722656 20.335938 34.722656 21.25 C 34.722656 22.164062 33.988281 22.90625 33.082031 22.90625 L 4.457031 22.90625 C 3.550781 22.90625 2.816406 22.164062 2.816406 21.25 C 2.816406 20.335938 3.550781 19.597656 4.457031 19.597656 Z M 4.457031 19.597656 "/>
<path style=" stroke:none;fill-rule:nonzero;fill:rgb(93.72549%,93.72549%,93.72549%);fill-opacity:1;" d="M 11.007812 11.238281 L 60.5 11.238281 C 61.089844 11.234375 61.632812 11.546875 61.929688 12.0625 C 62.222656 12.574219 62.222656 13.207031 61.929688 13.722656 C 61.632812 14.234375 61.089844 14.550781 60.5 14.546875 L 11.007812 14.546875 C 10.421875 14.550781 9.875 14.234375 9.582031 13.722656 C 9.285156 13.207031 9.285156 12.574219 9.582031 12.0625 C 9.875 11.546875 10.421875 11.234375 11.007812 11.238281 Z M 11.007812 11.238281 "/>
<path style=" stroke:none;fill-rule:nonzero;fill:rgb(93.72549%,93.72549%,93.72549%);fill-opacity:1;" d="M 3.765625 2.878906 L 51.535156 2.878906 C 52.4375 2.878906 53.171875 3.617188 53.171875 4.53125 C 53.171875 5.445312 52.4375 6.1875 51.535156 6.1875 L 3.765625 6.1875 C 2.863281 6.1875 2.128906 5.445312 2.128906 4.53125 C 2.128906 3.617188 2.863281 2.878906 3.765625 2.878906 Z M 3.765625 2.878906 "/>
</g>
</svg>
